# AST/ASF file generated using VICON BodyLanguage
# -----------------------------------------------
:version 1.10
:name VICON
:units
  mass 1.0
  length 0.45
  angle deg
:documentation
   .ast/.asf automatically generated from VICON data using
   VICON BodyBuilder and BodyLanguage model FoxedUp or BRILLIANT.MOD
:root
   order TX TY TZ RX RY RZ
   axis XYZ
   position 0 0 0  
   orientation 0 0 0 
:bonedata
  begin
     id 1 
     name lhipjoint
     direction 0.57768 -0.667037 0.470475 
     length 2.36008 
     axis 0 0 0  XYZ
  end
  begin
     id 2 
     name lfemur
     direction 0.34202 -0.939693 0  
     length 6.97235  
     axis 0 0 20  XYZ
    dof rx ry rz
    limits (-160.0 20.0)
           (-70.0 70.0)
           (-60.0 70.0)
  end
  begin
     id 3 
     name ltibia
     direction 0.34202 -0.939693 0   
     length 6.93428   
     axis 0 0 20   XYZ
    dof rx
    limits (-10.0 170.0)
  end
  begin
     id 4 
     name lfoot
     direction 0.133018 -0.365463 0.921272   
     length 2.18603   
     axis -90 7.62852e-016 20   XYZ
    dof rx rz
    limits (-45.0 90.0)
           (-70.0 20.0)
  end
  begin
     id 5 
     name ltoes
     direction 1.53519e-011 -4.22055e-011 1   
     length 1.07924   
     axis -90 7.62852e-016 20   XYZ
    dof rx
    limits (-90.0 20.0)
  end
  begin
     id 6 
     name rhipjoint
     direction -0.577712 -0.667019 0.470462   
     length 2.36015  
     axis 0 0 0  XYZ 
  end
  begin
     id 7 
     name rfemur
     direction -0.34202 -0.939693 0   
     length 6.71195   
     axis 0 0 -20   XYZ
    dof rx ry rz
    limits (-160.0 20.0)
           (-70.0 70.0)
           (-70.0 60.0)
  end
  begin
     id 8 
     name rtibia
     direction -0.34202 -0.939693 0   
     length 7.04592   
     axis 0 0 -20   XYZ
    dof rx
    limits (-10.0 170.0)
 end
 begin
     id 9 
     name rfoot
     direction -0.113796 -0.312651 0.943027   
     length 2.03846  
     axis -90 -7.62852e-016 -20   XYZ
    dof rx rz
    limits (-45.0 90.0)
           (-20.0 70.0)
  end
  begin
     id 10 
     name rtoes
     direction -1.53586e-011 -4.218e-011 1   
     length 1.01562   
     axis -90 -7.62852e-016 -20   XYZ
    dof rx
    limits (-90.0 20.0)
  end
  begin
     id 11 
     name lowerback
     direction -0.0417299 0.991937 -0.119667   
     length 2.05257   
     axis 0 0 0   XYZ
    dof rx ry rz
    limits (-20.0 45.0)
           (-30.0 30.0)
           (-30.0 30.0)
  end
  begin
     id 12 
     name upperback
     direction -0.00017666 0.999999 0.00105178   
     length 2.05693   
     axis 0 0 0   XYZ
    dof rx ry rz
    limits (-20.0 45.0)
           (-30.0 30.0)
           (-30.0 30.0)
  end
  begin
     id 13 
     name thorax
     direction 0.0185169 0.998203 0.0569866   
     length 2.0932   
     axis 0 0 0   XYZ
    dof rx ry rz
    limits (-20.0 45.0)
           (-30.0 30.0)
           (-30.0 30.0)
  end
  begin
     id 14 
     name lowerneck
     direction -0.0212406 0.982645 0.184277   
     length 1.72509   
     axis 0 0 0   XYZ
    dof rx ry rz
    limits (-20.0 45.0)
           (-30.0 30.0)
           (-30.0 30.0)
  end
  begin
     id 15 
     name upperneck
     direction 0.00528579 0.965323 -0.261004   
     length 1.76294   
     axis 0 0 0   XYZ
    dof rx ry rz
    limits (-20.0 45.0)
           (-30.0 30.0)
           (-30.0 30.0)
  end
  begin
     id 16
     name head
     direction 0.00695421 0.994078 -0.108445  
     length 1.78678  
     axis 0 0 0   XYZ
    dof rx ry rz
    limits (-20.0 45.0)
           (-30.0 30.0)
           (-30.0 30.0)
  end
  begin
     id 17 
     name lclavicle
     direction 0.97277 0.211305 -0.095232  
     length 3.84823  
     axis 0 0 0   XYZ
    dof ry rz
    limits (-20.0 10.0)
           (0.0 20.0)
  end
  begin
     id 18 
     name lhumerus
     direction 1 -4.48957e-011 -1.98313e-027   
     length 4.97185   
     axis 180 -30 -90   XYZ
    dof rx ry rz
    limits (-60.0 90.0)
           (-90.0 90.0)
           (-90.0 90.0)
  end
  begin
     id 19
     name lradius
     direction 1 -4.4898e-011 7.31063e-027   
     length 3.35811   
     axis 180 -30 -90   XYZ
    dof rx
    limits (-10.0 170.0)
  end
  begin
     id 20
     name lwrist
     direction 1 -4.48938e-011 9.95048e-027   
     length 1.67905   
     axis -8.75986e-015 90 90   XYZ
    dof ry
    limits (-180.0 0.0)
 end
  begin
     id 21 
     name lhand
     direction 1 -4.4901e-011 1.9901e-026   
     length 0.622776   
     axis -1.26985e-014 90 90   XYZ
    dof rx rz
    limits (-90.0 90.0)
           (-45.0 45.0)
  end
  begin
     id 22 
     name lfingers
     direction 1 -4.48961e-011 3.98019e-026   
     length 0.502098   
     axis -2.5397e-014 90 90   XYZ
    dof rx
    limits (0.0 90.0)
  end
  begin
     id 23
     name lthumb
     direction 0.707107 -6.34933e-011 0.707107   
     length 0.720915   
     axis -90 45 2.85299e-015   XYZ
    dof rx rz
    limits (-45.0 45.0)
           (-45.0 45.0)
  end
  begin
     id 24 
     name rclavicle
     direction -0.990867 0.133739 -0.0172226   
     length 3.78845  
     axis 0 0 0   XYZ 
    dof ry rz
    limits (-10.0 20.0)
           (-20.0 0.0)
  end
  begin
     id 25 
     name rhumerus
     direction -1 -4.48972e-011 -1.99267e-027  
     length 4.96493   
     axis 180 30 90   XYZ
    dof rx ry rz
    limits (-90.0 60.0)
           (-90.0 90.0)
           (-90.0 90.0)
  end
  begin
     id 26 
     name rradius
     direction -1 -4.48969e-011 8.96093e-027   
     length 3.34929   
     axis 180 30 90   XYZ
    dof rx
    limits (-10.0 170.0)
  end
  begin
     id 27 
     name rwrist
     direction -1 -4.48953e-011 9.95048e-027   
     length 1.67464   
     axis -8.75986e-015 -90 -90   XYZ
    dof ry
    limits (-180.0 0.0)
  end
  begin
     id 28
     name rhand
     direction -1 -4.49001e-011 1.9901e-026   
     length 0.638041   
     axis -1.26985e-014 -90 -90   XYZ
    dof rx rz
    limits (-90.0 90.0)
           (-45.0 45.0)
  end
  begin
     id 29
     name rfingers
     direction -1 -4.48967e-011 3.98019e-026   
     length 0.514405   
     axis -2.5397e-014 -90 -90   XYZ
    dof rx
    limits (0.0 90.0)
  end
  begin
     id 30
     name rthumb
     direction -0.707107 -6.34904e-011 0.707107   
     length 0.738586   
     axis -90 -45 -2.85299e-015   XYZ
    dof rx rz
    limits (-45.0 45.0)
           (-45.0 45.0)
  end
:hierarchy
  begin
    root lhipjoint rhipjoint lowerback
    lhipjoint lfemur
    lfemur ltibia
    ltibia lfoot
    lfoot ltoes
    rhipjoint rfemur
    rfemur rtibia
    rtibia rfoot
    rfoot rtoes
    lowerback upperback
    upperback thorax
    thorax lowerneck lclavicle rclavicle
    lowerneck upperneck
    upperneck head
    lclavicle lhumerus
    lhumerus lradius
    lradius lwrist
    lwrist lhand lthumb
    lhand lfingers
    rclavicle rhumerus
    rhumerus rradius
    rradius rwrist
    rwrist rhand rthumb
    rhand rfingers
  end

#!OML:ASF E:\Mandelcareful walks\Project 1\Capture day 1\Session 1\Subject1.ASF
:FULLY-SPECIFIED
:DEGREES
59
root 5.52343 17.0284 -1.1416 -132.105 -84.5737 135.998
lowerback -6.76167 -0.811 -5.32684
upperback 1.54864 -0.616655 -0.0625963
thorax 5.47625 -0.479777 2.85781
lowerneck -16.4904 -9.65073 -13.2744
upperneck 29.098 -12.836 6.42174
head 13.9869 -6.47599 2.44596
rclavicle 2.6662e-014 0
rhumerus -28.9469 -10.5898 -82.2316
rradius 25.5391
rwrist -5.11563
rhand -7.80455 -31.8011
rfingers 7.12502
rthumb 18.0969 -60.9792
lclavicle 2.6662e-014 0
lhumerus -26.6411 6.20407 89.1368
lradius 21.2425
lwrist 2.62853
lhand -22.0341 -14.1673
lfingers 7.12502
lthumb 4.37586 15.7675
rfemur 0.586914 -0.951756 11.2663
rtibia 6.23354
rfoot -11.4924 -20.5599
rtoes 2.30783
lfemur -2.78124 -7.16894 -18.3743
ltibia 15.6621
lfoot -20.3134 23.7811
ltoes 6.20862
60
root 5.52036 17.032 -1.13884 -131.194 -84.5074 135.065
lowerback -7.03616 -0.833035 -5.40058
upperback 1.73963 -0.614979 -0.0959381
thorax 5.83508 -0.493847 2.86141
lowerneck -16.6836 -9.70683 -13.3904
upperneck 29.0667 -12.8874 6.557
head 14.0429 -6.48312 2.49936
rclavicle -1.51698e-014 5.96354e-015
rhumerus -28.5214 -10.5756 -82.3808
rradius 25.4964
rwrist -5.12865
rhand -7.78585 -31.6746
rfingers 7.12502
rthumb 18.1149 -60.8511
lclavicle -1.51698e-014 5.96354e-015
lhumerus -26.2781 6.04013 89.3603
lradius 21.3216
lwrist 3.08662
lhand -21.892 -14.0335
lfingers 7.12502
lthumb 4.51304 15.8984
rfemur 0.5706 -0.971366 11.1179
rtibia 6.31677
rfoot -11.4535 -20.5439
rtoes 1.96983
lfemur -2.74995 -7.09671 -18.506
ltibia 15.6157
lfoot -20.1892 23.7551
ltoes 5.97553
61
root 5.52471 17.0365 -1.13997 -130.962 -84.5249 134.862
lowerback -7.10854 -0.834825 -5.42251
upperback 1.78588 -0.609142 -0.100541
thorax 5.92512 -0.494907 2.86882
lowerneck -16.6618 -9.69615 -13.4819
upperneck 29.0119 -12.8878 6.70305
head 14.035 -6.47431 2.57303
rclavicle 1.9717e-014 7.7526e-015
rhumerus -28.2795 -10.4747 -82.5161
rradius 25.4617
rwrist -5.13313
rhand -7.87328 -31.276
rfingers 7.12502
rthumb 18.0308 -60.4602
lclavicle 1.9717e-014 7.7526e-015
lhumerus -26.1808 5.81362 89.5441
lradius 21.5949
lwrist 3.30885
lhand -21.6401 -13.4756
lfingers 7.12502
lthumb 4.75625 16.451
rfemur 0.498646 -1.00142 11.1465
rtibia 6.38415
rfoot -11.4864 -20.5682
rtoes 1.7072
lfemur -2.77795 -6.94541 -18.4807
ltibia 15.5636
lfoot -20.0547 23.6333
ltoes 5.81949
62
root 5.53044 17.0369 -1.14155 -131.531 -84.5508 135.498
lowerback -7.06951 -0.807437 -5.38929
upperback 1.7074 -0.580681 -0.0950613
thorax 5.81672 -0.475412 2.86013
lowerneck -16.6333 -9.64719 -13.4214
upperneck 29.0893 -12.8414 6.67136
head 14.0484 -6.45565 2.56152
rclavicle -1.33807e-014 -1.68967e-014
rhumerus -28.3145 -10.2753 -82.6228
rradius 25.5487
rwrist -5.16527
rhand -8.02161 -31.0456
rfingers 7.12502
rthumb 17.888 -60.2429
lclavicle -1.33807e-014 -1.68967e-014
lhumerus -26.2691 5.44634 89.7244
lradius 21.7941
lwrist 3.56637
lhand -21.5229 -13.1296
lfingers 7.12502
lthumb 4.86947 16.7945
rfemur 0.436714 -0.982785 11.2446
rtibia 6.31713
rfoot -11.4323 -20.6003
rtoes 1.44918
lfemur -2.84641 -6.83993 -18.38
ltibia 15.5542
lfoot -20.0624 23.4556
ltoes 6.35219
63
root 5.53165 17.0384 -1.14186 -131.549 -84.5039 135.532
lowerback -7.07357 -0.789106 -5.43187
upperback 1.66821 -0.552514 -0.111552
thorax 5.7755 -0.460947 2.87041
lowerneck -16.5765 -9.59074 -13.4005
upperneck 29.0994 -12.7743 6.66679
head 14.0298 -6.42844 2.57259
rclavicle -7.45443e-015 -1.53064e-014
rhumerus -28.3581 -10.1292 -82.7144
rradius 25.6583
rwrist -5.06642
rhand -8.05413 -31.284
rfingers 7.12502
rthumb 17.8568 -60.4842
lclavicle -7.45443e-015 -1.53064e-014
lhumerus -26.3094 5.00231 89.9379
lradius 21.9001
lwrist 3.89887
lhand -21.5811 -13.1434
lfingers 7.12502
lthumb 4.81328 16.7819
rfemur 0.364986 -0.952111 11.2171
rtibia 6.38271
rfoot -11.4766 -20.6238
rtoes 1.45757
lfemur -2.86232 -6.79402 -18.4059
ltibia 15.5264
lfoot -19.9759 23.4787
ltoes 6.30184
64
root 5.52882 17.0381 -1.14168 -131.118 -84.4542 135.058
lowerback -7.08165 -0.786529 -5.51213
upperback 1.67225 -0.540665 -0.122553
thorax 5.78442 -0.458102 2.90536
lowerneck -16.5079 -9.54282 -13.4196
upperneck 29.0756 -12.7046 6.66541
head 13.9974 -6.40331 2.5922
rclavicle 6.16232e-015 -8.54774e-015
rhumerus -28.3349 -9.877 -82.842
rradius 25.6205
rwrist -5.27453
rhand -8.20023 -31.3288
rfingers 7.12502
rthumb 17.7162 -60.5418
lclavicle 6.16232e-015 -8.54774e-015
lhumerus -26.3293 4.67162 90.1513
lradius 21.9991
lwrist 3.95773
lhand -21.7493 -13.1766
lfingers 7.12502
lthumb 4.65085 16.7523
rfemur 0.319232 -0.947355 11.1372
rtibia 6.57456
rfoot -11.5981 -20.622
rtoes 1.40808
lfemur -2.79922 -6.70473 -18.4931
ltibia 15.4763
lfoot -19.8263 23.5583
ltoes 5.70843
